<svg id="logo" xmlns="http://www.w3.org/2000/svg" width="40.375" height="57.375" viewBox="0 0 40.375 57.375">
  <defs>
    <style>
      .cls-1 {
        fill: #202a3d;
      }

      .cls-1, .cls-2, .cls-3, .cls-4, .cls-5, .cls-6, .cls-7, .cls-8 {
        fill-rule: evenodd;
      }

      .cls-2 {
        fill: #7452fc;
      }

      .cls-3 {
        fill: #8161ff;
      }

      .cls-4 {
        fill: #8c70fc;
      }

      .cls-5 {
        fill: #008fb4;
      }

      .cls-6 {
        fill: #03add8;
      }

      .cls-7 {
        fill: #18d0ff;
      }

      .cls-8 {
        fill: #08beec;
      }
    </style>
  </defs>
  <path id="Прямоугольник_13_копия_2" data-name="Прямоугольник 13 копия 2" class="cls-1" d="M713.171,393.655l13.976-8.4a4.755,4.755,0,0,0,2.259-3.6V367.326a5.313,5.313,0,0,0-2.329-3.812l-13.906-7.836v37.977Z" transform="translate(-689.031 -336.281)"/>
  <g id="Группа_1" data-name="Группа 1">
    <path id="Фигура_2" data-name="Фигура 2" class="cls-1" d="M704.982,373.326l16.84,9.741c-0.033.023-.069,0.046-0.11,0.071l-14.933,8.424a3.671,3.671,0,0,1-3.736,0l-12.038-7.436a4.544,4.544,0,0,1-1.906-3.6l-0.071-14.213a3.671,3.671,0,0,1,1.8-3.16l12.212-7.218a3.659,3.659,0,0,1,1.939-.509v17.9Z" transform="translate(-689.031 -336.281)"/>
    <path id="Фигура_3" data-name="Фигура 3" class="cls-2" d="M689.682,382.654a4.668,4.668,0,0,1-.583-2.128l-0.071-14.213a3.666,3.666,0,0,1,.53-1.9l0.036,0.014,15.318,8.824Z" transform="translate(-689.031 -336.281)"/>
    <path id="Прямоугольник_15" data-name="Прямоугольник 15" class="cls-3" d="M704.912,373.255v18.817a3.664,3.664,0,0,1-1.869-.51l-12.038-7.436a3.772,3.772,0,0,1-1.321-1.469Z" transform="translate(-689.031 -336.281)"/>
    <path id="Прямоугольник_14" data-name="Прямоугольник 14" class="cls-4" d="M704.982,392.07V373.326l16.84,9.741c-0.033.023-.069,0.046-0.11,0.071l-14.933,8.424A3.667,3.667,0,0,1,704.982,392.07Z" transform="translate(-689.031 -336.281)"/>
  </g>
  <g id="Группа_3" data-name="Группа 3">
    <path id="Прямоугольник_13" data-name="Прямоугольник 13" class="cls-1" d="M713.171,374.244l-13.977-8.4a5.454,5.454,0,0,1-2.259-3.953l0.018-15.04a2.4,2.4,0,0,1,1.2-2.078l15.018-8.506v37.978Z" transform="translate(-689.031 -336.281)"/>
    <path id="Фигура_5" data-name="Фигура 5" class="cls-5" d="M729.406,367.326v14.329a3.968,3.968,0,0,1-.615,1.923l-15.62-9.264,15.628-8.921A4.067,4.067,0,0,1,729.406,367.326Z" transform="translate(-689.031 -336.281)"/>
    <path id="Фигура_4" data-name="Фигура 4" class="cls-6" d="M727.077,363.514A5.033,5.033,0,0,1,728.8,365.4l-15.632,8.914V355.678Z" transform="translate(-689.031 -336.281)"/>
    <path id="Прямоугольник_13_копия" data-name="Прямоугольник 13 копия" class="cls-7" d="M713.171,355.6l-15.561,8.477a4.913,4.913,0,0,1-.675-2.182l0.018-15.04a2.393,2.393,0,0,1,.268-1.1l15.95,9.8V355.6Z" transform="translate(-689.031 -336.281)"/>
    <path id="Фигура_6" data-name="Фигура 6" class="cls-8" d="M697.638,364.121l15.533-8.557v18.68l-13.977-8.4A4.567,4.567,0,0,1,697.638,364.121Z" transform="translate(-689.031 -336.281)"/>
  </g>
</svg>
