<svg id="icon" xmlns="http://www.w3.org/2000/svg" width="46.469" height="46.46" viewBox="0 0 46.469 46.46">
  <defs>
    <style>
      .cls-1 {
        fill: #cad7e1;
      }

      .cls-1, .cls-2 {
        fill-rule: evenodd;
      }

      .cls-2 {
        fill: #7f97a9;
      }
    </style>
  </defs>
  <path id="Фигура_23" data-name="Фигура 23" class="cls-1" d="M419.075,2410.16H390.033a5.829,5.829,0,0,0-5.808,5.81v25.17a5.823,5.823,0,0,0,5.808,5.81h10.554a5.274,5.274,0,0,1-.871-2.9,5.5,5.5,0,0,1,.095-0.97h-9.778a1.942,1.942,0,0,1-1.937-1.94v-21.3h32.916v16.54a17.626,17.626,0,0,1,3.872,1.82v-22.23a5.83,5.83,0,0,0-5.809-5.81h0Z" transform="translate(-384.219 -2410.16)"/>
  <path id="Фигура_24" data-name="Фигура 24" class="cls-2" d="M429.24,2456.63a1.461,1.461,0,0,1-1.266-.74,13.756,13.756,0,0,0-11.806-7v4.35a1.448,1.448,0,0,1-2.454,1.05l-9.68-9.19a1.47,1.47,0,0,1-.453-1.06,1.431,1.431,0,0,1,.453-1.05l9.68-9.2a1.457,1.457,0,0,1,2.457,1.06v4.42a15.99,15.99,0,0,1,14.521,15.91,1.451,1.451,0,0,1-1.083,1.4A1.56,1.56,0,0,1,429.24,2456.63Z" transform="translate(-384.219 -2410.16)"/>
</svg>
