<svg id="icon" xmlns="http://www.w3.org/2000/svg" width="49.5" height="49.5" viewBox="0 0 49.5 49.5">
  <defs>
    <style>
      .cls-1 {
        fill: #c5d3df;
      }

      .cls-1, .cls-2 {
        fill-rule: evenodd;
      }

      .cls-2 {
        fill: #7f97a9;
      }
    </style>
  </defs>
  <path id="Фигура_27" data-name="Фигура 27" class="cls-1" d="M1259.72,2223.19h-33a6.185,6.185,0,1,0,0,12.37h33A6.185,6.185,0,1,0,1259.72,2223.19Zm-33,8.25a2.065,2.065,0,1,1,2.06-2.06A2.063,2.063,0,0,1,1226.72,2231.44Zm8.25,0a2.065,2.065,0,1,1,2.06-2.06A2.063,2.063,0,0,1,1234.97,2231.44Zm-8.25,8.25a6.185,6.185,0,1,0,0,12.37h14.44v-3.01a5.667,5.667,0,0,1,3.86-5.38l10.8-3.67a5.555,5.555,0,0,1,1.84-.31h-30.94Zm0,8.25a2.065,2.065,0,1,1,2.06-2.07A2.066,2.066,0,0,1,1226.72,2247.94Zm8.25,0a2.065,2.065,0,1,1,2.06-2.07A2.066,2.066,0,0,1,1234.97,2247.94Zm6.19,9.38v-1.13h-14.44a6.185,6.185,0,1,0,0,12.37h18.5A17.982,17.982,0,0,1,1241.16,2257.32Zm-14.44,7.12a2.065,2.065,0,1,1,2.06-2.06A2.066,2.066,0,0,1,1226.72,2264.44Zm8.25,0a2.065,2.065,0,1,1,2.06-2.06A2.066,2.066,0,0,1,1234.97,2264.44Z" transform="translate(-1220.53 -2223.19)"/>
  <path id="Фигура_28" data-name="Фигура 28" class="cls-2" d="M1268.98,2247.58l-10.83-3.68a1.526,1.526,0,0,0-.99,0l-10.83,3.68a1.538,1.538,0,0,0-1.05,1.46v8.29c0,10.12,11.29,15.03,11.77,15.24a1.58,1.58,0,0,0,.61.12,1.411,1.411,0,0,0,.6-0.13c0.48-.2,11.77-5.12,11.77-15.23v-8.29a1.538,1.538,0,0,0-1.05-1.46h0Zm-4.55,7.82-5.67,7.22a2.063,2.063,0,0,1-2.96.29l-3.61-3.1a2.06,2.06,0,0,1,2.68-3.13l1.98,1.7,4.34-5.53a2.062,2.062,0,1,1,3.24,2.55h0Z" transform="translate(-1220.53 -2223.19)"/>
</svg>
