<svg id="icon" xmlns="http://www.w3.org/2000/svg" width="47.563" height="47.56" viewBox="0 0 47.563 47.56">
  <defs>
    <style>
      .cls-1 {
        fill: #83a0b6;
        opacity: 0.38;
      }

      .cls-1, .cls-2 {
        fill-rule: evenodd;
      }

      .cls-2 {
        fill: #7f97a9;
      }
    </style>
  </defs>
  <path id="Фигура_21" data-name="Фигура 21" class="cls-1" d="M494.623,2229.65h-5.5c0.015,0.16.051,0.32,0.051,0.49a5.381,5.381,0,0,1-.624,2.48,5.646,5.646,0,0,1,.383.99h5.2v21.79H454.5v-21.79h5.2a5.716,5.716,0,0,1,.383-0.99,5.381,5.381,0,0,1-.624-2.48c0-.17.036-0.33,0.051-0.5H454a3.481,3.481,0,0,0-3.469,3.47v26.76a3.466,3.466,0,0,0,3.469,3.46h15.175a8.935,8.935,0,0,1-2.5,4.26,0.99,0.99,0,0,0,.7,1.69H481.25a0.99,0.99,0,0,0,.7-1.69,9.2,9.2,0,0,1-2.527-4.26h15.2a3.465,3.465,0,0,0,3.466-3.46v-26.76A3.466,3.466,0,0,0,494.623,2229.65Z" transform="translate(-450.531 -2221.72)"/>
  <path id="Фигура_22" data-name="Фигура 22" class="cls-2" d="M464.9,2233.61a1.485,1.485,0,1,0,0,2.97h2.516a3.474,3.474,0,0,0,2.437,2.83v2.62a1.486,1.486,0,1,0,2.972,0v-2.48H475.3v2.48a1.487,1.487,0,1,0,2.973,0v-2.51a3.48,3.48,0,0,0,2.935-2.94h2.516a1.485,1.485,0,1,0,0-2.97H481.25v-1.98h2.476a1.49,1.49,0,0,0,0-2.98h-2.515a3.478,3.478,0,0,0-2.936-2.93v-2.51a1.487,1.487,0,1,0-2.973,0v2.47h-1.979v-2.47a1.487,1.487,0,1,0-2.973,0v2.51a3.475,3.475,0,0,0-2.933,2.93H464.9a1.49,1.49,0,0,0,0,2.98h2.477v1.98H464.9Z" transform="translate(-450.531 -2221.72)"/>
</svg>
