<svg id="icon" xmlns="http://www.w3.org/2000/svg" width="47.5" height="47.5" viewBox="0 0 47.5 47.5">
  <defs>
    <style>
      .cls-1 {
        fill: #7f97a9;
      }

      .cls-1, .cls-2 {
        fill-rule: evenodd;
      }

      .cls-2 {
        fill: #c5d3df;
      }
    </style>
  </defs>
  <path id="Фигура_31" data-name="Фигура 31" class="cls-1" d="M1228.42,2613.31a3.955,3.955,0,1,0,3.95,3.96A3.956,3.956,0,0,0,1228.42,2613.31Zm2.47,9.89h-4.95a5.441,5.441,0,0,0-5.44,5.45v0.99a1.49,1.49,0,0,0,1.48,1.48h8.42v-0.5a8.263,8.263,0,0,1,3.3-6.62A5.358,5.358,0,0,0,1230.89,2623.2Zm25.23-5.93a3.96,3.96,0,1,0,3.96-3.96A3.961,3.961,0,0,0,1256.12,2617.27Zm11.88,11.37a5.439,5.439,0,0,0-5.44-5.44h-4.95a5.358,5.358,0,0,0-2.81.8,8.271,8.271,0,0,1,3.31,6.62v0.5h8.41a1.5,1.5,0,0,0,1.48-1.49v-0.99h0Zm-29.69-12.36a5.94,5.94,0,1,0,5.94-5.94A5.932,5.932,0,0,0,1238.31,2616.28Zm11.38,8.9h-10.88a5.448,5.448,0,0,0-5.45,5.44v2.97a1.494,1.494,0,0,0,1.49,1.49h18.8a1.485,1.485,0,0,0,1.48-1.49v-2.97A5.439,5.439,0,0,0,1249.69,2625.18Z" transform="translate(-1220.5 -2587.56)"/>
  <path id="Фигура_32" data-name="Фигура 32" class="cls-2" d="M1223.96,2590.55h2.48v15.34a5.439,5.439,0,0,0,5.44,5.44h4.97a8.894,8.894,0,0,1,14.8,0h4.96a5.441,5.441,0,0,0,5.45-5.44v-15.34h2.48a1.492,1.492,0,0,0,1.48-1.49,1.477,1.477,0,0,0-1.48-1.48h-40.58A1.485,1.485,0,0,0,1223.96,2590.55Zm29.2,9.4a1.494,1.494,0,0,1-.92,1.37,1.444,1.444,0,0,1-.57.11,1.518,1.518,0,0,1-1.05-.43l-1.55-1.56-2.83,2.59a1.478,1.478,0,0,1-1.74.2l-2.48-1.42-4.14,4.15a1.5,1.5,0,0,1-2.1,0,1.485,1.485,0,0,1,0-2.1l4.95-4.95a1.469,1.469,0,0,1,1.78-.24l2.52,1.44,1.94-1.77-1.29-1.29a1.482,1.482,0,0,1,1.04-2.53h4.95a1.485,1.485,0,0,1,1.49,1.48v4.95Z" transform="translate(-1220.5 -2587.56)"/>
</svg>
