<svg id="icon" xmlns="http://www.w3.org/2000/svg" width="45.062" height="43.06" viewBox="0 0 45.062 43.06">
  <defs>
    <style>
      .cls-1 {
        fill: #cad7e1;
      }

      .cls-1, .cls-2 {
        fill-rule: evenodd;
      }

      .cls-2 {
        fill: #7f97a9;
      }
    </style>
  </defs>
  <path id="Фигура_25" data-name="Фигура 25" class="cls-1" d="M458.13,2617.79h0a15.67,15.67,0,0,0,4.178,2.66l7.969-4.99a4.273,4.273,0,0,1,5.237.59l2.681,2.68A15.935,15.935,0,1,0,458.13,2617.79Zm11.353-10.46h-1.429a3.975,3.975,0,0,1-.693-7.89v-1.47a1.409,1.409,0,0,1,2.817,0v1.4h1.876a1.405,1.405,0,1,1,0,2.81h-4a1.17,1.17,0,0,0,0,2.34h1.429a3.969,3.969,0,0,1,.692,7.88v1.48a1.408,1.408,0,0,1-2.816,0v-1.41H465.48a1.4,1.4,0,1,1,0-2.8h4A1.17,1.17,0,0,0,469.483,2607.33Z" transform="translate(-450.938 -2590)"/>
  <path id="Фигура_26" data-name="Фигура 26" class="cls-2" d="M494.12,2610.6h-7.513a1.874,1.874,0,0,0-1.327,3.2l2.426,2.42-7.674,7.65-6.183-6.17a1.883,1.883,0,0,0-2.316-.26l-19.719,12.16a1.876,1.876,0,0,0,.992,3.47h0a1.861,1.861,0,0,0,.983-0.29l18.454-11.38,6.462,6.44a1.886,1.886,0,0,0,2.657,0l9-8.98,2.431,2.43a1.915,1.915,0,0,0,1.327.55h0a1.835,1.835,0,0,0,.721-0.15,1.868,1.868,0,0,0,1.158-1.73v-7.48A1.879,1.879,0,0,0,494.12,2610.6Z" transform="translate(-450.938 -2590)"/>
</svg>
