<svg id="icon" xmlns="http://www.w3.org/2000/svg" width="48.85" height="48.9" viewBox="0 0 48.85 48.9">
  <defs>
    <style>
      .cls-1 {
        fill: #c5d3df;
      }

      .cls-1, .cls-2 {
        fill-rule: evenodd;
      }

      .cls-2 {
        fill: #7f97a9;
      }
    </style>
  </defs>
  <path id="Фигура_29" data-name="Фигура 29" class="cls-1" d="M1335.94,2431.64a1.535,1.535,0,0,0-1.62,1.42,21.389,21.389,0,1,1-21.35-22.82,21.147,21.147,0,0,1,13.98,5.25l-1.31,1.31a1.53,1.53,0,0,0,1.08,2.61h5.09a1.53,1.53,0,0,0,1.53-1.53v-5.09a1.529,1.529,0,0,0-2.61-1.08l-1.62,1.62a24.181,24.181,0,0,0-16.14-6.14,24.445,24.445,0,1,0,24.4,26.07,1.531,1.531,0,0,0-1.43-1.62h0Z" transform="translate(-1288.53 -2407.19)"/>
  <path id="Фигура_30" data-name="Фигура 30" class="cls-2" d="M1322.19,2443.86c-0.08,0-.16-0.01-0.23-0.01a23.138,23.138,0,0,1-21.2-21.2,3.028,3.028,0,0,1,.79-2.26,2.943,2.943,0,0,1,2.15-.95l4.46-.03a2.978,2.978,0,0,1,2.89,2.23l0.93,3.71a2.955,2.955,0,0,1-1.1,3.09l-1.21.9a16.555,16.555,0,0,0,5.5,5.54l0.96-1.26a2.951,2.951,0,0,1,3.08-1.09l3.74,0.92a2.953,2.953,0,0,1,2.24,2.87v4.57a2.935,2.935,0,0,1-.94,2.16,3.036,3.036,0,0,1-2.06.81h0Z" transform="translate(-1288.53 -2407.19)"/>
</svg>
