<svg xmlns="http://www.w3.org/2000/svg" width="138.188" height="133.688" viewBox="0 0 138.188 133.688">
  <defs>
    <style>
      .cls-1 {
        fill: #545e75;
        fill-rule: evenodd;
        opacity: 0.63;
      }
    </style>
  </defs>
  <path id="Start...........Safe.........Staking............." class="cls-1" d="M730.15,428.666l0.125,0.259a2.812,2.812,0,0,0,.539.786,1.5,1.5,0,0,0,.711.4,2.1,2.1,0,0,0,.937-0.02,5.646,5.646,0,0,0,1.222-.45l2.97-1.435a1.161,1.161,0,0,1,.821-0.163,0.964,0.964,0,0,1,.494.541,0.944,0.944,0,0,1,.114.718,1.184,1.184,0,0,1-.641.536l-5.023,2.426c0.086,0.27.172,0.532,0.26,0.787s0.178,0.516.271,0.782l5.207-2.515a5.184,5.184,0,0,0,1.083-.67,1.954,1.954,0,0,0,.562-0.725,1.507,1.507,0,0,0,.087-0.841,3.753,3.753,0,0,0-.34-1.008l-0.12-.248a3.3,3.3,0,0,0-.547-0.829,1.539,1.539,0,0,0-.7-0.436,1.908,1.908,0,0,0-.9-0.018,4.919,4.919,0,0,0-1.176.422l-3.014,1.456a1.366,1.366,0,0,1-.864.2,0.917,0.917,0,0,1-.516-0.544,1.511,1.511,0,0,1-.142-0.417,0.59,0.59,0,0,1,.04-0.333,0.738,0.738,0,0,1,.248-0.286,2.985,2.985,0,0,1,.473-0.275l5.056-2.442q-0.156-.378-0.3-0.753t-0.3-.753l-5.251,2.536a5.376,5.376,0,0,0-1.068.656,1.921,1.921,0,0,0-.574.73,1.61,1.61,0,0,0-.1.866A3.765,3.765,0,0,0,730.15,428.666Zm-8.1,0-1.572.389,1.592,6.427-2.922.724,0.392,1.583,7.416-1.837-0.392-1.583-2.922.724Zm-15.865,2.081-1.844.094,4.935,8.011,1.689-.086,4.1-8.471-1.844.094-0.933,1.969-4.971.254Zm3.847,6.446-2.042-3.319,3.737-.19Zm-17.136-8-2.244-.409,2.523,3.23a6.941,6.941,0,0,0-1.294-.132,1.91,1.91,0,0,0-.918.217,1.551,1.551,0,0,0-.614.657,4.213,4.213,0,0,0-.369,1.189l-0.09.5a4.807,4.807,0,0,0-.089,1.192,1.8,1.8,0,0,0,.253.852,1.606,1.606,0,0,0,.636.561,3.855,3.855,0,0,0,1.068.335l6.637,1.209,1.481-8.126-1.607-.292-0.484,2.657-2.563-.467Zm-1.374,5.265,0.071-.39a1.167,1.167,0,0,1,.318-0.71,0.775,0.775,0,0,1,.647-0.1l4.984,0.908-0.458,2.515-4.984-.908a0.663,0.663,0,0,1-.6-0.408A2.212,2.212,0,0,1,691.519,434.458Zm-7.612-8.1-1.5-.618-2.527,6.123-2.784-1.149-0.623,1.509,7.067,2.916,0.622-1.509-2.784-1.149Zm-7.421-3.55-1.286-.748-0.874,1.5,1.286,0.747Zm-5.478-3.484-1.2-.878-1.027,1.405,1.2,0.878Zm-5.062-4.029-1.1-1-1.168,1.288,1.1,1Zm-4.639-4.569-0.99-1.11-1.3,1.157,0.989,1.11Zm-4.108-5-0.868-1.209-1.414,1.016,0.869,1.209Zm-3.567-5.425L652.9,399l-1.514.859,0.734,1.294Zm-2.97-5.764-0.594-1.365-1.6.695,0.594,1.364Zm-2.341-6.059-0.445-1.421-1.662.52L646.659,389Zm-1.683-6.281-0.289-1.459-1.706.339,0.289,1.459Zm-1-6.411L645.5,374.3l-1.732.157,0.134,1.482Zm-0.32-6.489,0.025-1.488-1.739-.028-0.025,1.487Zm-0.63-15.3-0.283-.05a2.787,2.787,0,0,0-.953-0.024,1.484,1.484,0,0,0-.737.344,2.1,2.1,0,0,0-.534.77,5.711,5.711,0,0,0-.351,1.253l-0.579,3.248a1.157,1.157,0,0,1-.349.76,0.968,0.968,0,0,1-.728.084,0.95,0.95,0,0,1-.648-0.329,1.181,1.181,0,0,1-.058-0.833l0.979-5.492c-0.269-.088-0.532-0.172-0.79-0.25s-0.523-.158-0.792-0.239l-1.015,5.693a5.116,5.116,0,0,0-.093,1.269,1.953,1.953,0,0,0,.258.88,1.509,1.509,0,0,0,.63.564,3.77,3.77,0,0,0,1.016.315l0.272,0.048a3.277,3.277,0,0,0,.992.043,1.529,1.529,0,0,0,.762-0.309,1.909,1.909,0,0,0,.542-0.72,4.924,4.924,0,0,0,.348-1.2l0.588-3.3a1.358,1.358,0,0,1,.346-0.815,0.91,0.91,0,0,1,.743-0.1,1.456,1.456,0,0,1,.421.13,0.587,0.587,0,0,1,.246.226,0.74,0.74,0,0,1,.087.369,3.052,3.052,0,0,1-.055.545l-0.985,5.527c0.265,0.063.527,0.128,0.788,0.2s0.523,0.132.787,0.195l1.024-5.739a5.388,5.388,0,0,0,.095-1.251,1.938,1.938,0,0,0-.255-0.892,1.606,1.606,0,0,0-.646-0.584A3.727,3.727,0,0,0,644.687,354Zm6.862-11.64,0.723-1.7-9.372.932-0.663,1.557,5.829,7.4,0.724-1.7-1.364-1.7,1.951-4.584Zm-7.487.638,3.882-.384-1.466,3.446Zm8.841-9.387,3.5-4.868-1.168-.84-3.5,4.867-1.538-1.106,3.579-4.975-1.324-.953-4.524,6.289,6.7,4.819,0.946-1.314ZM662.332,327l5.85-5.356-1.094-1.194-4.655,4.261-1.248-1.362,4.523-4.141-0.9-.982-4.522,4.14-1.232-1.345,4.655-4.262-1.1-1.2-5.85,5.356Zm9.844-8.145,1.241-.821-0.96-1.451-1.241.821Zm5.569-3.362,1.321-.685-0.8-1.545-1.321.685Zm5.873-2.741,1.387-.539-0.631-1.622-1.387.539Zm6.148-2.105,1.436-.388-0.454-1.679-1.436.388Zm6.308-1.432,1.47-.235-0.274-1.719-1.47.235Zm6.465-.758,1.486-.078-0.091-1.737-1.485.078Zm6.492-.075,1.486,0.078,0.09-1.737-1.485-.078Zm6.458,0.6,1.471,0.234,0.274-1.719-1.47-.234Zm6.363,1.286,1.436,0.39,0.456-1.68-1.437-.389Zm14.983,3.186,0.119-.262a2.785,2.785,0,0,0,.259-0.918,1.486,1.486,0,0,0-.15-0.8,2.086,2.086,0,0,0-.614-0.708,5.618,5.618,0,0,0-1.127-.652l-3-1.368a1.16,1.16,0,0,1-.65-0.527,0.966,0.966,0,0,1,.1-0.726,0.946,0.946,0,0,1,.479-0.547,1.182,1.182,0,0,1,.822.15l5.081,2.313c0.152-.238.3-0.473,0.439-0.7s0.283-.467.428-0.709l-5.266-2.4a5.152,5.152,0,0,0-1.208-.4,1.961,1.961,0,0,0-.917.03,1.518,1.518,0,0,0-.7.472,3.714,3.714,0,0,0-.558.907l-0.114.251a3.289,3.289,0,0,0-.288.95,1.544,1.544,0,0,0,.11.816,1.916,1.916,0,0,0,.563.7,4.924,4.924,0,0,0,1.076.635l3.049,1.388a1.369,1.369,0,0,1,.7.539,0.914,0.914,0,0,1-.088.744,1.5,1.5,0,0,1-.231.377,0.6,0.6,0,0,1-.281.182,0.732,0.732,0,0,1-.379-0.008,2.959,2.959,0,0,1-.514-0.188l-5.113-2.328q-0.192.361-.385,0.715t-0.385.715l5.309,2.418a5.354,5.354,0,0,0,1.189.4,1.924,1.924,0,0,0,.928-0.025,1.621,1.621,0,0,0,.727-0.481A3.783,3.783,0,0,0,736.835,313.456ZM742,319.675l1.306,0.957,3.917-5.34,2.428,1.781,0.965-1.315-6.162-4.52-0.965,1.316,2.428,1.781Zm11.779,10.857,1.255,1.356,2.985-8.925-1.149-1.241-9.129,2.286L749,325.364l2.109-.546,3.382,3.653Zm2.481-7.085-1.238,3.695-2.542-2.747Zm4.961,18.534L762.362,344l1.515-5.963,5.688,1.931-1.149-2.038-7.351-2.44,4.536-2.556-0.8-1.422-7.191,4.053,0.8,1.421,0.878-.5,3.163,1.069Zm2.675,6.3,0.541,1.526,7.779-2.761-0.541-1.526Zm3.372,13.621,0.27,1.573,8.136-1.4-0.264-1.538-5.889,1.011,4.931-6.592-0.294-1.715-8.136,1.4,0.262,1.526,6-1.029Zm0.127,14.262-0.076,1.366,4.791,0.268,0.259-4.611-1.342-.076-0.173,3.091-1.054-.059a0.681,0.681,0,0,1-.566-0.3,1.65,1.65,0,0,1-.145-0.958l0.21-3.749a2.211,2.211,0,0,1,.069-0.471,0.523,0.523,0,0,1,.2-0.289,0.817,0.817,0,0,1,.4-0.134,4.317,4.317,0,0,1,.685,0l2.659,0.149a1.238,1.238,0,0,1,.815.25,1.051,1.051,0,0,1,.173.779l-0.228,4.061a1.061,1.061,0,0,1-.237.695,1.407,1.407,0,0,1-.457.323l1,1.077a2.193,2.193,0,0,0,.39-0.194,1.786,1.786,0,0,0,.417-0.361,2.2,2.2,0,0,0,.343-0.558,2.239,2.239,0,0,0,.17-0.783l0.235-4.181a4.878,4.878,0,0,0-.067-1.271,1.618,1.618,0,0,0-.411-0.81,1.785,1.785,0,0,0-.8-0.448,5.879,5.879,0,0,0-1.246-.184l-2.9-.162a6.129,6.129,0,0,0-1.294.041,1.753,1.753,0,0,0-.843.356,1.563,1.563,0,0,0-.481.76,5.265,5.265,0,0,0-.2,1.256l-0.2,3.5a2,2,0,0,0,.055.628,1.657,1.657,0,0,0,.207.486,1.387,1.387,0,0,0,.3.342,0.973,0.973,0,0,0,.35.182ZM766.044,383a0.757,0.757,0,0,0,1.472.342A0.757,0.757,0,0,0,766.044,383Zm-1.312,5.3-0.474,1.41,1.648,0.555,0.475-1.409Zm-2.317,6.054-0.623,1.35,1.58,0.728,0.622-1.351Zm-2.958,5.787-0.762,1.277,1.493,0.891,0.763-1.277Zm-3.548,5.431-0.893,1.19,1.391,1.044,0.893-1.19ZM751.8,410.6l-1.014,1.09,1.274,1.186,1.014-1.09Zm-4.609,4.565-1.122.977,1.142,1.312,1.122-.977Zm-5.053,4.048-1.218.853,1,1.425,1.218-.854Z" transform="translate(-637.75 -305.156)"/>
</svg>
