<?xml version="1.0" standalone="no"?>
<!DOCTYPE svg PUBLIC "-//W3C//DTD SVG 20010904//EN"
 "http://www.w3.org/TR/2001/REC-SVG-20010904/DTD/svg10.dtd">
<svg version="1.0" xmlns="http://www.w3.org/2000/svg"
 width="40.000000pt" height="57.000000pt" viewBox="0 0 40.000000 57.000000"
 preserveAspectRatio="xMidYMid meet">

<g transform="translate(0.000000,57.000000) scale(0.100000,-0.100000)"
fill="#000000" stroke="none">
<path d="M74 437 c-26 -32 -38 -85 -26 -116 8 -21 8 -21 33 6 21 25 24 35 19
83 l-5 55 -21 -28z"/>
<path d="M171 354 c0 -11 3 -14 6 -6 3 7 2 16 -1 19 -3 4 -6 -2 -5 -13z"/>
<path d="M82 277 c-52 -56 -52 -143 0 -202 39 -45 61 -46 54 -3 -3 18 -8 64
-12 102 -6 71 -13 118 -18 123 -1 2 -12 -7 -24 -20z"/>
<path d="M171 184 c0 -11 3 -14 6 -6 3 7 2 16 -1 19 -3 4 -6 -2 -5 -13z"/>
</g>
</svg>
